<?xml version="1.0" standalone="no"?>
<!DOCTYPE svg PUBLIC "-//W3C//DTD SVG 20010904//EN"
 "http://www.w3.org/TR/2001/REC-SVG-20010904/DTD/svg10.dtd">
<svg version="1.0" xmlns="http://www.w3.org/2000/svg"
 width="64.000000pt" height="64.000000pt" viewBox="0 0 64.000000 64.000000"
 preserveAspectRatio="xMidYMid meet">
<metadata>
Created by potrace 1.14, written by Peter Selinger 2001-2017
</metadata>
<g transform="translate(0.000000,64.000000) scale(0.100000,-0.100000)"
fill="#000000" stroke="none">
<path d="M395 470 c-61 -61 -121 -113 -133 -117 -19 -4 -34 4 -70 39 -26 25
-55 48 -64 51 -11 4 -35 -8 -67 -34 -51 -39 -70 -75 -54 -102 19 -32 232 -227
249 -227 26 0 384 359 384 385 0 26 -89 115 -116 115 -11 0 -63 -44 -129 -110z"/>
</g>
</svg>
